<?xml version="1.0" standalone="no"?>
<!DOCTYPE svg PUBLIC "-//W3C//DTD SVG 20010904//EN"
 "http://www.w3.org/TR/2001/REC-SVG-20010904/DTD/svg10.dtd">
<svg version="1.0" xmlns="http://www.w3.org/2000/svg"
 width="700.000000pt" height="700.000000pt" viewBox="0 0 700.000000 700.000000"
 preserveAspectRatio="xMidYMid meet">
<metadata>
Created by potrace 1.11, written by Peter Selinger 2001-2013
</metadata>
<g transform="translate(0.000000,700.000000) scale(0.100000,-0.100000)"
fill="#000000" stroke="none">
<path d="M188 6876 c-89 -31 -145 -87 -173 -172 -14 -45 -15 -278 -12 -2584 2
-1793 7 -2548 14 -2580 6 -25 13 -58 16 -75 35 -217 155 -483 311 -690 219
-290 537 -504 896 -603 77 -22 99 -26 179 -38 25 -4 55 -9 66 -12 11 -3 410
-7 888 -8 l867 -3 0 931 0 931 -79 81 c-82 85 -89 92 -321 336 -80 84 -174
182 -208 219 -93 96 -127 140 -155 196 -77 153 -38 359 92 484 48 46 140 95
201 107 19 4 341 8 715 9 732 2 756 0 855 -50 59 -30 129 -97 165 -160 34 -58
63 -177 58 -239 -9 -117 -52 -198 -179 -331 -42 -44 -114 -120 -162 -170 -127
-134 -295 -310 -383 -401 l-78 -80 0 -932 0 -932 867 3 c477 2 876 6 887 9 11
3 42 9 68 12 277 41 580 175 797 354 91 75 214 205 289 305 39 51 71 97 71
100 0 3 12 23 26 44 35 52 100 191 135 288 47 132 72 242 89 395 4 41 7 1200
7 2575 -2 2166 -4 2504 -17 2530 -59 123 -199 189 -317 149 -22 -7 -109 -51
-194 -97 -85 -46 -190 -103 -234 -127 -44 -23 -107 -57 -140 -75 -386 -210
-534 -290 -610 -331 -49 -26 -111 -60 -137 -74 -25 -14 -74 -40 -107 -58 -34
-18 -132 -71 -217 -117 -85 -47 -159 -85 -163 -85 -34 0 -35 -22 -37 -699 -1
-729 2 -697 -60 -771 -101 -119 -286 -123 -391 -9 -11 13 -32 44 -44 69 l-24
45 -1 575 c-1 316 -2 578 -3 583 0 4 -362 6 -803 5 l-802 -3 -1 -580 -1 -580
-24 -49 c-31 -60 -100 -122 -154 -138 -139 -39 -279 31 -323 162 -17 51 -18
101 -18 712 l0 656 -164 89 c-249 133 -310 166 -381 205 -106 58 -549 297
-630 341 -41 22 -88 47 -105 57 -16 9 -70 39 -120 65 -49 27 -154 83 -232 125
-77 42 -161 85 -185 95 -55 22 -124 26 -170 11z m1811 -2708 c218 -74 302
-348 161 -527 -75 -94 -157 -135 -275 -135 -70 0 -89 4 -146 32 -115 55 -187
164 -193 291 -11 245 220 418 453 339z m3206 7 c40 -10 81 -33 131 -72 143
-112 159 -344 33 -487 -161 -184 -460 -139 -567 84 -32 67 -39 179 -15 251 32
98 131 193 232 223 48 14 134 14 186 1z"/>
</g>
</svg>
