<?xml version="1.0" encoding="iso-8859-1"?>
<!-- Generator: Adobe Illustrator 19.0.0, SVG Export Plug-In . SVG Version: 6.00 Build 0)  -->
<svg version="1.1" id="Layer_1" xmlns="http://www.w3.org/2000/svg" xmlns:xlink="http://www.w3.org/1999/xlink" x="0px" y="0px"
	 viewBox="0 0 512 512" style="enable-background:new 0 0 512 512;" xml:space="preserve">
<path d="M483.87,10.531L352.939,81.374v93.79c0,10.526-8.534,19.06-19.06,19.06c-10.526,0-19.06-8.534-19.06-19.06V94.298H197.18
	v80.867c0,10.526-8.534,19.06-19.06,19.06c-10.526,0-19.06-8.534-19.06-19.06v-93.79L28.13,10.531C15.436,3.663,0,12.885,0,27.294
	v354.061c0,67.51,54.924,122.432,122.432,122.432H236.94V367.799l-50.226-52.639c-18.724-19.625-4.787-52.243,22.361-52.243h93.849
	c27.119,0,41.104,32.596,22.362,52.243L275.06,367.8v135.987h114.508c67.51,0,122.432-54.924,122.432-122.432V27.294
	C512,12.862,496.544,3.673,483.87,10.531z M137.969,255.917c-13.925-0.013-25.203-11.311-25.191-25.236s11.311-25.203,25.236-25.191
	c13.925,0.013,25.203,11.311,25.191,25.236C163.193,244.65,151.895,255.93,137.969,255.917z M373.986,256.083
	c-13.925-0.013-25.203-11.311-25.191-25.236c0.013-13.925,11.311-25.203,25.236-25.191c13.925,0.013,25.203,11.311,25.191,25.236
	C399.21,244.818,387.911,256.096,373.986,256.083z"/>
<g>
</g>
<g>
</g>
<g>
</g>
<g>
</g>
<g>
</g>
<g>
</g>
<g>
</g>
<g>
</g>
<g>
</g>
<g>
</g>
<g>
</g>
<g>
</g>
<g>
</g>
<g>
</g>
<g>
</g>
</svg>
